# xmcd
# Track frame offsets:
# 150
# 11242
# 20334
# 30031
# 38093
# 49156
# 60964
# 70585
# 80196
# 89764
# 98880
# 109549
#
# Disc length: 1585 seconds
# Revision: 0
# Processed by: cddbd v1.4PL0 Copyright (c) Steve Scherf et al.
# Submitted via: VisiTrax 2.9.5.181 - For more info visit www.synapsa.com
#
DISCID=8c062f0c
DTITLE=George Jones - The Crown Prince
DYEAR=1961
DGENRE=
TTITLE0=One Is A Lonely Number
TTITLE1=Maybe Little Baby
TTITLE2=Run Boy
TTITLE3=I'm A One Woman Man
TTITLE4=Settle Down
TTITLE5=Heartbroken Me
TTITLE6=Rain Rain
TTITLE7=Frozen Heart
TTITLE8=I've Got Five Dollars And It's A Saturday Night
TTITLE9=Cause I Love You
TTITLE10=You're My Heart
TTITLE11=You All Goodnight
EXTD=
EXTT0=
EXTT1=
EXTT2=
EXTT3=
EXTT4=
EXTT5=
EXTT6=
EXTT7=
EXTT8=
EXTT9=
EXTT10=
EXTT11=
PLAYORDER=
